<?xml version="1.0" encoding="UTF-8"?>
<!DOCTYPE svg PUBLIC "-//W3C//DTD SVG 1.1//EN" "http://www.w3.org/Graphics/SVG/1.1/DTD/svg11.dtd">
<svg xmlns="http://www.w3.org/2000/svg" version="1.1" width="40px" height="40px" style="shape-rendering:geometricPrecision; text-rendering:geometricPrecision; image-rendering:optimizeQuality; fill-rule:evenodd; clip-rule:evenodd" xmlns:xlink="http://www.w3.org/1999/xlink">
<g><path style="opacity:1" fill="#f9faf9" d="M -0.5,-0.5 C 12.8333,-0.5 26.1667,-0.5 39.5,-0.5C 39.5,12.8333 39.5,26.1667 39.5,39.5C 26.1667,39.5 12.8333,39.5 -0.5,39.5C -0.5,26.1667 -0.5,12.8333 -0.5,-0.5 Z"/></g>
<g><path style="opacity:1" fill="#8f8f8f" d="M 1.5,1.5 C 13.5,1.5 25.5,1.5 37.5,1.5C 37.5,13.5 37.5,25.5 37.5,37.5C 25.5,37.5 13.5,37.5 1.5,37.5C 1.5,25.5 1.5,13.5 1.5,1.5 Z"/></g>
<g><path style="opacity:1" fill="#f5f5f5" d="M 2.5,2.5 C 13.8333,2.5 25.1667,2.5 36.5,2.5C 36.5,13.8333 36.5,25.1667 36.5,36.5C 25.1667,36.5 13.8333,36.5 2.5,36.5C 2.5,25.1667 2.5,13.8333 2.5,2.5 Z"/></g>
<g><path style="opacity:1" fill="#272d34" d="M 14.5,8.5 C 15.8182,11.2575 16.4848,14.4242 16.5,18C 16.3333,21.1667 16.1667,24.3333 16,27.5C 14.4447,29.5152 12.6114,29.8485 10.5,28.5C 11.6283,27.7379 12.7949,27.0712 14,26.5C 14.4995,20.5092 14.6662,14.5092 14.5,8.5 Z"/></g>
<g><path style="opacity:1" fill="#2d3339" d="M 21.5,8.5 C 26.7086,8.36932 28.3753,10.7026 26.5,15.5C 25.7564,14.0095 25.0897,12.5095 24.5,11C 22.892,10.342 21.7253,10.842 21,12.5C 20.3333,17.1667 20.3333,21.8333 21,26.5C 24.131,28.1657 25.631,27.1657 25.5,23.5C 25.2104,21.9559 24.5437,20.6226 23.5,19.5C 24.6888,18.5713 26.0222,18.238 27.5,18.5C 27.6646,21.5184 27.498,24.5184 27,27.5C 24.9251,29.6483 22.5918,29.9817 20,28.5C 18.4301,22.9473 18.0968,17.2806 19,11.5C 20.045,10.6266 20.8783,9.62656 21.5,8.5 Z"/></g>
</svg>
